<svg width="32" height="33" viewBox="0 0 32 33" fill="none" xmlns="http://www.w3.org/2000/svg">
<path d="M22.6666 3.65104H9.33329C5.65139 3.65104 2.66663 6.63581 2.66663 10.3177V23.651C2.66663 27.3329 5.65139 30.3177 9.33329 30.3177H22.6666C26.3485 30.3177 29.3333 27.3329 29.3333 23.651V10.3177C29.3333 6.63581 26.3485 3.65104 22.6666 3.65104Z" stroke="white" stroke-width="2" stroke-linecap="round" stroke-linejoin="round"/>
<path d="M21.3334 16.1444C21.4979 17.254 21.3084 18.3873 20.7917 19.3831C20.275 20.3788 19.4575 21.1863 18.4555 21.6906C17.4535 22.195 16.3179 22.3705 15.2104 22.1923C14.1029 22.0141 13.0797 21.4912 12.2865 20.6979C11.4932 19.9047 10.9703 18.8815 10.7921 17.774C10.6139 16.6665 10.7894 15.5309 11.2938 14.5289C11.7981 13.5269 12.6056 12.7094 13.6013 12.1927C14.5971 11.676 15.7304 11.4865 16.84 11.651C17.9719 11.8189 19.0198 12.3463 19.8289 13.1555C20.6381 13.9646 21.1655 15.0125 21.3334 16.1444Z" stroke="white" stroke-width="2" stroke-linecap="round" stroke-linejoin="round"/>
<path d="M23.3334 9.65105H23.3467" stroke="white" stroke-width="2" stroke-linecap="round" stroke-linejoin="round"/>
</svg>
