<svg width="33" height="33" viewBox="0 0 33 33" fill="none" xmlns="http://www.w3.org/2000/svg">
<path d="M21.6667 11.651C23.7885 11.651 25.8233 12.4939 27.3236 13.9942C28.8239 15.4945 29.6667 17.5293 29.6667 19.651V28.9844H24.3334V19.651C24.3334 18.9438 24.0525 18.2655 23.5524 17.7654C23.0523 17.2653 22.374 16.9844 21.6667 16.9844C20.9595 16.9844 20.2812 17.2653 19.7811 17.7654C19.281 18.2655 19.0001 18.9438 19.0001 19.651V28.9844H13.6667V19.651C13.6667 17.5293 14.5096 15.4945 16.0099 13.9942C17.5102 12.4939 19.545 11.651 21.6667 11.651Z" stroke="white" stroke-width="2" stroke-linecap="round" stroke-linejoin="round"/>
<path d="M8.33333 12.9844H3V28.9844H8.33333V12.9844Z" stroke="white" stroke-width="2" stroke-linecap="round" stroke-linejoin="round"/>
<path d="M5.66667 8.98437C7.13943 8.98437 8.33333 7.79047 8.33333 6.31771C8.33333 4.84495 7.13943 3.65104 5.66667 3.65104C4.19391 3.65104 3 4.84495 3 6.31771C3 7.79047 4.19391 8.98437 5.66667 8.98437Z" stroke="white" stroke-width="2" stroke-linecap="round" stroke-linejoin="round"/>
</svg>
