<svg width="33" height="33" viewBox="0 0 33 33" fill="none" xmlns="http://www.w3.org/2000/svg">
<g clip-path="url(#clip0_82_1267)">
<path d="M30.7199 9.54438C30.5615 8.91159 30.239 8.33181 29.7848 7.86359C29.3306 7.39536 28.7609 7.05529 28.1332 6.87771C25.8399 6.31771 16.6666 6.31771 16.6666 6.31771C16.6666 6.31771 7.49324 6.31771 5.19991 6.93104C4.57224 7.10862 4.00254 7.4487 3.54837 7.91692C3.0942 8.38514 2.77163 8.96492 2.61324 9.59771C2.19353 11.9251 1.98822 14.2861 1.99991 16.651C1.98495 19.0338 2.19026 21.4128 2.61324 23.7577C2.78785 24.3708 3.11765 24.9286 3.57077 25.377C4.02388 25.8255 4.585 26.1495 5.19991 26.3177C7.49324 26.931 16.6666 26.931 16.6666 26.931C16.6666 26.931 25.8399 26.931 28.1332 26.3177C28.7609 26.1401 29.3306 25.8001 29.7848 25.3318C30.239 24.8636 30.5615 24.2838 30.7199 23.651C31.1364 21.3412 31.3417 18.9982 31.3332 16.651C31.3482 14.2683 31.1429 11.8893 30.7199 9.54438Z" stroke="white" stroke-width="2" stroke-linecap="round" stroke-linejoin="round"/>
<path d="M13.6666 21.011L21.3333 16.651L13.6666 12.291V21.011Z" stroke="white" stroke-width="2" stroke-linecap="round" stroke-linejoin="round"/>
</g>
<defs>
<clipPath id="clip0_82_1267">
<rect width="32" height="32" fill="white" transform="translate(0.666626 0.984375)"/>
</clipPath>
</defs>
</svg>
